<?xml version="1.0" encoding="utf-8"?>
<!-- Generator: Adobe Illustrator 23.0.2, SVG Export Plug-In . SVG Version: 6.00 Build 0)  -->
<svg version="1.1" id="Camada_1" xmlns="http://www.w3.org/2000/svg" xmlns:xlink="http://www.w3.org/1999/xlink" x="0px" y="0px"
	 viewBox="0 0 50 50" style="enable-background:new 0 0 50 50;" xml:space="preserve">
<style type="text/css">
	.st0{fill:none;stroke:#000000;stroke-linecap:round;stroke-linejoin:round;stroke-miterlimit:10;}
</style>
<path class="st0" d="M39.7,32.5c0-2.3-0.5-4.4-1.4-6.4c0.6-0.8,0.9-1.7,0.9-2.7c0-2.7-2.4-4.8-5.3-4.8c-0.9,0-1.8,0.2-2.6,0.6
	c-1-0.5-2-0.8-3.1-1.1c2.8-1.2,4.8-4,4.8-7.3c0-4.4-3.5-8-7.9-8v0h0c0,0,0,0,0,0c0,0,0,0,0,0h0v0c-4.4,0-7.9,3.6-7.9,8
	c0,3.3,2,6.1,4.8,7.3c-1.1,0.2-2.1,0.6-3.1,1.1c-0.8-0.4-1.7-0.6-2.6-0.6c-2.9,0-5.3,2.2-5.3,4.8c0,1,0.3,2,0.9,2.7
	c-0.9,1.9-1.4,4.1-1.4,6.4c0,8.1,6.6,14.7,14.7,14.7v0h0c0,0,0,0,0,0c0,0,0,0,0,0h0v0C33.1,47.2,39.7,40.6,39.7,32.5"/>
</svg>
