<?xml version="1.0" encoding="utf-8"?>
<!-- Generator: Adobe Illustrator 23.0.2, SVG Export Plug-In . SVG Version: 6.00 Build 0)  -->
<svg version="1.1" xmlns="http://www.w3.org/2000/svg" xmlns:xlink="http://www.w3.org/1999/xlink" x="0px" y="0px"
	 viewBox="0 0 153.4 70.5" style="enable-background:new 0 0 153.4 70.5;" xml:space="preserve">
<style type="text/css">
	.st0{display:none;}
	.st1{fill:#020203;}
</style>
<g id="Layer_1" class="st0">
</g>
<g id="Camada_1">
	<path class="st1" d="M46.7,47.1c0-3.6-0.8-7.1-2.3-10.1c0.9-1.2,1.5-2.7,1.5-4.4c0-4.2-3.8-7.7-8.4-7.7c-1.5,0-2.9,0.4-4.1,1
		c-1.6-0.7-3.2-1.3-4.9-1.7c4.5-2,7.6-6.4,7.6-11.6c0-7-5.6-12.6-12.6-12.7v0h0c0,0,0,0,0,0c0,0,0,0,0,0h0v0
		c-7,0.1-12.6,5.7-12.6,12.7c0,5.2,3.1,9.6,7.6,11.6c-1.7,0.4-3.4,1-4.9,1.7c-1.2-0.6-2.6-1-4.1-1c-4.6,0-8.4,3.4-8.4,7.7
		c0,1.6,0.6,3.1,1.5,4.4C0.8,40.1,0,43.5,0,47.1C0,60,10.4,70.5,23.3,70.5v0h0c0,0,0,0,0,0c0,0,0,0,0,0h0v0
		C36.3,70.5,46.7,60,46.7,47.1"/>
	<g>
		<path class="st1" d="M70.2,21.9l1.6,0l-0.1,17.6c-1.5,0-3.1,0-4.6,0l0-7.8l-3.8,3.9l-0.5,0l-3.7-3.9l0,7.8c-1.5,0-3.1,0-4.6,0
			l0.1-17.6l1.7,0l6.8,7.6L70.2,21.9z"/>
		<path class="st1" d="M83.2,28.9l-2,4.6l4,0L83.2,28.9z M86.6,37.4l-6.9,0l-1,2.2l-4.4,0l0-0.7l8-17l1.9,0L92,39l0,0.7l-4.4,0
			L86.6,37.4z"/>
		<path class="st1" d="M102.1,26.2c-1.1,0-2.2,0-3.2,0c0,1.4,0,3,0,4.4l3.2,0C104.5,30.6,104.6,26.2,102.1,26.2 M109.1,39.1l0,0.7
			l-5,0l-3-5.2l-2.3,0l0,5.2c-1.5,0-3,0-4.5,0c0-5.8,0.1-11.7,0.1-17.5c2.5,0,5.1,0,7.7,0c6.9,0.1,8.1,8.4,3.6,11.3L109.1,39.1z"/>
		<polygon class="st1" points="119.3,35.8 119.3,39.8 110.4,39.7 110.4,35.8 112.6,35.8 112.7,26.1 110.6,26.1 110.7,22.2 
			119.2,22.3 119.2,26.2 117.1,26.2 117.1,35.8 		"/>
		<path class="st1" d="M129.3,29.2l-2,4.6l4,0L129.3,29.2z M132.7,37.7l-6.9,0l-1,2.2l-4.4,0l0-0.7l8-17l1.9,0l7.8,17.1l0,0.7
			l-4.4,0L132.7,37.7z"/>
		<path class="st1" d="M149,34.8c0-1.2-1.4-1.5-3.2-1.6c-3.8-0.3-6.3-1.6-6.3-5.4c-0.1-7.6,13.5-7.5,13.4,0.1c-1.6,0-2.7,0-4.3,0
			c0-2.3-4.7-2.2-4.9-0.1c-0.1,1.3,1.2,1.6,2.8,1.8c3.5,0.4,6.9,0.9,6.8,5.3c0,7.4-14.3,7.4-14.2-0.3c1.5,0,2.8,0,4.3,0
			C143.5,36.8,149,36.9,149,34.8"/>
		<path class="st1" d="M82.9,49.1c0-0.2,0-0.4-0.1-0.6c0-0.2-0.1-0.3-0.2-0.4c-0.1-0.1-0.2-0.2-0.4-0.2c-0.2,0-0.4-0.1-0.6-0.1h-0.8
			v2.6h0.7c0.2,0,0.4,0,0.6-0.1c0.2,0,0.4-0.1,0.5-0.3c0.1-0.1,0.2-0.3,0.3-0.5C82.8,49.4,82.9,49.2,82.9,49.1 M83.7,49
			c0,0.2,0,0.5-0.1,0.7c0,0.2-0.1,0.4-0.2,0.6c-0.1,0.2-0.2,0.4-0.4,0.5c-0.2,0.1-0.4,0.2-0.6,0.3c-0.3,0.1-0.5,0.1-0.8,0.1
			c-0.3,0-0.6,0-0.8,0v2.9c0,0.1,0,0.1,0,0.1c0,0-0.1,0-0.1,0H80c-0.1,0-0.1,0-0.1,0c0,0,0-0.1,0-0.1v-6.8c0-0.1,0-0.1,0-0.1
			c0,0,0.1,0,0.1,0h1.6c0.3,0,0.5,0,0.8,0c0.3,0,0.5,0.1,0.7,0.3c0.2,0.2,0.4,0.4,0.5,0.7C83.7,48.5,83.7,48.7,83.7,49"/>
		<path class="st1" d="M86.5,49.1c0-0.2-0.1-0.3-0.1-0.5c0-0.2-0.1-0.3-0.1-0.5c0,0.2-0.1,0.3-0.1,0.5c0,0.2-0.1,0.3-0.1,0.5
			l-0.6,2.3h1.7L86.5,49.1z M88.9,54.1C88.9,54.2,88.8,54.2,88.9,54.1c-0.1,0.1-0.1,0.1-0.1,0.1h-0.7c-0.1,0-0.1,0-0.2-0.1l-0.6-2
			h-2.1l-0.6,2c0,0.1-0.1,0.1-0.1,0.1h-0.6c0,0-0.1,0-0.1,0c0,0,0,0,0-0.1c0,0,0-0.1,0-0.1l2.1-6.8c0,0,0-0.1,0-0.1c0,0,0,0,0.1,0
			h0.7c0.1,0,0.1,0,0.1,0c0,0,0,0,0,0.1L88.9,54.1C88.9,54.1,88.9,54.1,88.9,54.1"/>
		<path class="st1" d="M93,49.1c0-0.2,0-0.4-0.1-0.6c0-0.2-0.1-0.3-0.2-0.4c-0.1-0.1-0.2-0.2-0.4-0.2c-0.2,0-0.4-0.1-0.6-0.1h-0.8
			v2.6h0.7c0.2,0,0.4,0,0.6-0.1c0.2,0,0.3-0.1,0.5-0.3c0.1-0.1,0.2-0.3,0.3-0.5C93,49.4,93,49.2,93,49.1 M93.9,49
			c0,0.2,0,0.5-0.1,0.7c0,0.2-0.1,0.4-0.2,0.6c-0.1,0.2-0.2,0.4-0.4,0.5c-0.2,0.1-0.4,0.2-0.6,0.3c-0.3,0.1-0.5,0.1-0.8,0.1
			c-0.3,0-0.6,0-0.8,0v2.9c0,0.1,0,0.1,0,0.1c0,0-0.1,0-0.1,0h-0.6c-0.1,0-0.1,0-0.1,0c0,0,0-0.1,0-0.1v-6.8c0-0.1,0-0.1,0-0.1
			c0,0,0.1,0,0.1,0h1.6c0.3,0,0.5,0,0.8,0c0.3,0,0.5,0.1,0.7,0.3c0.2,0.2,0.4,0.4,0.5,0.7C93.8,48.5,93.9,48.7,93.9,49"/>
		<path class="st1" d="M98.4,54.2c0,0-0.1,0-0.1,0h-3.2c-0.1,0-0.1,0-0.1-0.1v-6.8c0-0.1,0-0.1,0-0.1c0,0,0.1,0,0.1,0h3.2
			c0,0,0.1,0,0.1,0c0,0,0,0,0,0.1c0,0,0,0.1,0,0.1l-0.1,0.5c0,0.1-0.1,0.1-0.2,0.1h-2.3v2.3h2c0.1,0,0.1,0,0.1,0c0,0,0,0.1,0,0.1
			v0.4c0,0.1,0,0.1,0,0.1c0,0-0.1,0-0.1,0h-2v2.6h2.5c0.1,0,0.1,0,0.1,0c0,0,0,0.1,0,0.1v0.5C98.5,54.1,98.5,54.2,98.4,54.2"/>
		<path class="st1" d="M102.7,49c0-0.5-0.1-0.8-0.3-0.9c-0.2-0.2-0.5-0.2-1-0.2h-0.8v2.5h0.8c0.5,0,0.8-0.1,1-0.4
			C102.6,49.7,102.7,49.4,102.7,49 M103.9,54.2c-0.1,0-0.2,0-0.2,0.1c-0.1,0-0.2,0-0.3,0c-0.1,0-0.1,0-0.2,0c0,0-0.1,0-0.1-0.1
			l-1.7-3.2h-0.8v3.1c0,0.1,0,0.1,0,0.1c0,0-0.1,0-0.1,0h-0.6c-0.1,0-0.1,0-0.1,0c0,0,0-0.1,0-0.1v-6.8c0-0.1,0-0.1,0-0.1
			s0.1,0,0.1,0h1.6c0.3,0,0.5,0,0.8,0c0.3,0,0.5,0.1,0.7,0.3c0.2,0.2,0.4,0.4,0.5,0.6c0.1,0.3,0.1,0.5,0.1,0.8
			c0,0.5-0.1,0.9-0.3,1.2c-0.2,0.4-0.6,0.6-1,0.8L104,54c0,0,0,0,0,0l0,0.1v0C104,54.1,104,54.2,103.9,54.2"/>
		<path class="st1" d="M108.4,50.6c0-0.2,0-0.5,0-0.7c0-0.3-0.1-0.5-0.1-0.8c-0.1-0.2-0.2-0.5-0.3-0.7c-0.1-0.2-0.3-0.3-0.6-0.4
			c-0.1,0-0.3-0.1-0.5-0.1c-0.2,0-0.3,0-0.5,0H106v5.6h0.5c0.2,0,0.4,0,0.5,0c0.2,0,0.3-0.1,0.4-0.1c0.1-0.1,0.3-0.2,0.4-0.3
			c0.1-0.1,0.2-0.3,0.3-0.5c0.1-0.3,0.2-0.6,0.2-1C108.4,51.2,108.4,50.9,108.4,50.6 M109.3,50.5c0,0.5,0,1-0.1,1.4
			c-0.1,0.4-0.2,0.8-0.5,1.2c-0.2,0.3-0.5,0.6-0.9,0.8c-0.4,0.2-0.8,0.3-1.4,0.3h-1.2c-0.1,0-0.1,0-0.1,0c0,0,0-0.1,0-0.1v-6.8
			c0-0.1,0-0.1,0-0.1c0,0,0.1,0,0.1,0h1.1c0.2,0,0.4,0,0.6,0c0.2,0,0.4,0,0.6,0.1c0.2,0,0.4,0.1,0.5,0.2c0.2,0.1,0.3,0.2,0.5,0.3
			c0.2,0.2,0.3,0.4,0.4,0.6c0.1,0.2,0.2,0.5,0.3,0.7c0.1,0.2,0.1,0.5,0.1,0.7C109.3,50,109.3,50.3,109.3,50.5"/>
		<path class="st1" d="M114.1,50.7c0-0.2,0-0.4,0-0.6c0-0.2,0-0.4-0.1-0.6c0-0.2-0.1-0.4-0.1-0.6c-0.1-0.2-0.1-0.4-0.2-0.5
			c-0.2-0.4-0.5-0.6-1-0.6c-0.2,0-0.4,0-0.6,0.1c-0.2,0.1-0.3,0.2-0.4,0.4c-0.1,0.2-0.2,0.3-0.2,0.6c-0.1,0.2-0.1,0.4-0.1,0.6
			c0,0.2,0,0.4,0,0.6c0,0.2,0,0.4,0,0.6c0,0.2,0,0.4,0,0.6c0,0.2,0,0.4,0.1,0.6c0,0.2,0.1,0.4,0.1,0.6c0.1,0.2,0.1,0.4,0.2,0.5
			c0.1,0.2,0.2,0.4,0.4,0.5c0.2,0.1,0.4,0.1,0.6,0.1c0.4,0,0.6-0.1,0.8-0.3c0.2-0.2,0.3-0.5,0.4-0.8c0.1-0.3,0.1-0.6,0.2-1
			C114.1,51.2,114.1,50.9,114.1,50.7 M115.1,50.7c0,0.4,0,0.8-0.1,1.2c-0.1,0.4-0.2,0.8-0.4,1.2c-0.2,0.4-0.4,0.7-0.7,0.9
			c-0.3,0.2-0.7,0.3-1.2,0.3c-0.5,0-0.9-0.1-1.2-0.4c-0.3-0.2-0.5-0.5-0.7-0.9c-0.2-0.4-0.3-0.8-0.3-1.2c-0.1-0.4-0.1-0.8-0.1-1.2
			c0-0.4,0-0.8,0.1-1.3c0.1-0.4,0.2-0.8,0.3-1.2c0.2-0.4,0.4-0.7,0.7-0.9c0.3-0.2,0.7-0.4,1.2-0.4c0.3,0,0.6,0.1,0.9,0.2
			c0.2,0.1,0.4,0.3,0.6,0.4c0.2,0.2,0.3,0.4,0.4,0.7c0.1,0.2,0.2,0.5,0.2,0.8c0.1,0.3,0.1,0.5,0.1,0.8
			C115,50.2,115.1,50.4,115.1,50.7"/>
		<path class="st1" d="M120.2,53.5C120.2,53.6,120.2,53.6,120.2,53.5C120.2,53.6,120.2,53.6,120.2,53.5l-0.2,0.6
			c0,0.1-0.1,0.1-0.2,0.1h-3.1c-0.1,0-0.1,0-0.1-0.1v-6.8c0-0.1,0-0.1,0-0.1c0,0,0.1,0,0.1,0h0.6c0.1,0,0.1,0,0.1,0c0,0,0,0.1,0,0.1
			v6.2h2.6C120.1,53.5,120.1,53.5,120.2,53.5C120.2,53.5,120.2,53.5,120.2,53.5"/>
		<path class="st1" d="M124.8,53.5C124.8,53.6,124.8,53.6,124.8,53.5C124.7,53.6,124.7,53.6,124.8,53.5l-0.2,0.6
			c0,0.1-0.1,0.1-0.2,0.1h-3.1c-0.1,0-0.1,0-0.1-0.1v-6.8c0-0.1,0-0.1,0-0.1c0,0,0.1,0,0.1,0h0.6c0.1,0,0.1,0,0.1,0c0,0,0,0.1,0,0.1
			v6.2h2.6C124.7,53.5,124.7,53.5,124.8,53.5C124.8,53.5,124.8,53.5,124.8,53.5"/>
		<path class="st1" d="M129.6,52.3c0,0.3-0.1,0.6-0.2,0.9c-0.1,0.3-0.3,0.5-0.5,0.6c-0.2,0.2-0.4,0.3-0.7,0.4
			c-0.3,0.1-0.5,0.1-0.9,0.1c-0.1,0-0.3,0-0.4,0c-0.2,0-0.3-0.1-0.5-0.1c-0.2,0-0.3-0.1-0.5-0.1c-0.2-0.1-0.3-0.1-0.4-0.2
			c0,0-0.1,0-0.1-0.1c0,0,0-0.1,0-0.1c0,0,0,0,0-0.1c0-0.1,0-0.1,0.1-0.2c0-0.1,0-0.1,0.1-0.2c0-0.1,0-0.1,0-0.1c0,0,0-0.1,0.1-0.1
			c0,0,0.1,0,0.1,0c0,0,0,0,0.1,0c0,0,0,0,0.1,0c0.2,0.1,0.5,0.2,0.7,0.3c0.3,0.1,0.5,0.1,0.8,0.1c0.4,0,0.7-0.1,0.9-0.3
			c0.2-0.2,0.4-0.5,0.4-0.9c0-0.2,0-0.4-0.1-0.5c-0.1-0.2-0.2-0.3-0.3-0.4c-0.1-0.1-0.3-0.2-0.4-0.3c-0.2-0.1-0.3-0.2-0.5-0.3
			c-0.2-0.1-0.4-0.2-0.6-0.4c-0.2-0.1-0.4-0.3-0.6-0.4c-0.2-0.2-0.3-0.3-0.4-0.5c-0.1-0.2-0.1-0.4-0.1-0.7c0-0.3,0.1-0.6,0.2-0.8
			c0.1-0.2,0.3-0.4,0.4-0.6c0.2-0.2,0.4-0.3,0.7-0.4c0.2-0.1,0.5-0.1,0.8-0.1c0.1,0,0.3,0,0.4,0c0.1,0,0.3,0,0.4,0.1
			c0.1,0,0.3,0.1,0.4,0.1c0.1,0.1,0.3,0.1,0.4,0.2c0,0,0.1,0.1,0.1,0.1c0,0,0,0,0,0.1c0,0,0,0.1-0.1,0.1c0,0.1,0,0.1-0.1,0.2
			c0,0.1-0.1,0.1-0.1,0.2c0,0-0.1,0.1-0.1,0.1c0,0-0.1,0-0.1,0c0,0-0.1,0-0.1-0.1c0,0-0.1,0-0.1-0.1c0,0-0.1,0-0.1-0.1
			c-0.1-0.1-0.3-0.1-0.5-0.2c-0.2,0-0.4-0.1-0.5-0.1c-0.3,0-0.6,0.1-0.8,0.3c-0.2,0.2-0.3,0.4-0.3,0.8c0,0.2,0,0.3,0.1,0.4
			c0.1,0.1,0.1,0.2,0.2,0.3c0.1,0.1,0.2,0.2,0.3,0.3c0.1,0.1,0.2,0.2,0.4,0.2c0.2,0.1,0.5,0.3,0.7,0.4c0.2,0.1,0.5,0.3,0.6,0.5
			c0.2,0.2,0.3,0.4,0.5,0.6C129.5,51.7,129.6,52,129.6,52.3"/>
	</g>
</g>
</svg>
